PathFileType	4	(X/Y/Z)	SUBJ32_1_walk_RCNL2025.trc
DataRate	CameraRate	NumFrames	NumMarkers	Units	OrigDataRate	OrigDataStartFrame	OrigNumFrames
100	100	6	25	mm	100	249	331
Frame#	Time	R_Shoulder			L_Shoulder			C7			J_Notch			R_Elbow			L_Elbow			R_Wrist			L_Wrist			R_Asis			L_Asis			Sacral			Thoracic			Sternum			R_Thigh_Lateral			R_Knee_Lateral			R_Shank_Lateral			R_Ankle_Lateral			R_Heel			R_Toe			L_Thigh_Lateral			L_Knee_Lateral			L_Shank_Lateral			L_Ankle_Lateral			L_Heel			L_Toe		
		X1	Y1	Z1	X2	Y2	Z2	X3	Y3	Z3	X4	Y4	Z4	X5	Y5	Z5	X6	Y6	Z6	X7	Y7	Z7	X8	Y8	Z8	X9	Y9	Z9	X10	Y10	Z10	X11	Y11	Z11	X12	Y12	Z12	X13	Y13	Z13	X14	Y14	Z14	X15	Y15	Z15	X16	Y16	Z16	X17	Y17	Z17	X18	Y18	Z18	X19	Y19	Z19	X20	Y20	Z20	X21	Y21	Z21	X22	Y22	Z22	X23	Y23	Z23	X24	Y24	Z24	X25	Y25	Z25
249	2.48000000	1503.019531	1333.365845	10.077327	1493.264404	1334.525879	-360.128326	1484.901978	1416.707275	-162.710754	1595.442139	1301.129517	-172.125305	1459.167358	1006.210815	128.862534	1371.071411	1029.171631	-439.120422	1601.834534	801.017120	140.673187	1390.106506	768.668793	-450.853058	1547.189697	877.679260	-52.824196	1577.166382	866.366882	-303.877289	1364.781128	923.448364	-200.790115	1366.727295	1184.501099	-178.822311	1654.196533	1078.699829	-165.361603	1374.080444	532.512634	-3.034914	1355.807007	437.547638	-54.386349	1294.416870	284.661469	5.614888	1227.322876	74.241394	-123.480072	1177.946655	77.770988	-178.887009	1353.274902	42.504890	-147.788910	1580.279419	527.172668	-398.089752	1619.368164	449.906677	-344.537354	1680.851929	239.293915	-372.068604	1757.479370	59.507206	-286.749634	1715.754150	37.717976	-232.213013	1892.818970	81.413643	-272.098999
250	2.49000000	1514.628540	1332.069580	9.318969	1503.940186	1333.293823	-360.760284	1496.062500	1415.284424	-163.239594	1606.782349	1299.884521	-173.039993	1470.753906	1005.159546	128.627930	1380.954468	1028.023560	-439.109802	1612.928223	799.646881	140.886269	1399.578247	767.488831	-450.820786	1558.649536	876.424133	-52.753113	1589.180664	864.829346	-303.749664	1376.557983	922.111572	-201.458160	1378.249634	1182.914429	-179.390152	1665.870850	1077.422852	-165.935410	1382.883911	532.372681	-2.294549	1363.797974	437.413940	-53.461498	1299.954346	285.516357	6.689260	1228.460571	76.434265	-122.318565	1178.927490	81.216530	-177.393570	1353.614014	42.597263	-147.553650	1589.943970	524.352173	-396.262787	1630.012695	447.904633	-342.596222	1693.151123	237.273666	-368.678955	1771.128784	58.534454	-282.429413	1730.039307	36.425102	-227.496429	1906.357788	82.836571	-268.447479
251	2.50000000	1526.291382	1330.840698	8.460227	1514.790771	1332.059570	-361.497009	1507.352661	1413.913696	-163.921707	1618.255737	1298.685791	-174.031876	1482.277466	1004.175598	128.250656	1391.062012	1026.885376	-439.232178	1623.706360	798.178436	141.056725	1409.412476	766.333771	-450.900970	1570.353760	875.170776	-52.724625	1601.332520	863.426636	-303.700562	1388.505493	920.792847	-202.078705	1389.926758	1181.345459	-180.018600	1677.715210	1076.183960	-166.574371	1392.144287	532.183777	-1.436229	1372.262207	437.238953	-52.390862	1305.967407	286.408112	7.947671	1229.757812	78.860016	-120.958992	1180.065796	85.030899	-175.631653	1353.983276	42.686207	-147.312820	1601.153687	522.330261	-394.594757	1641.567383	446.282562	-340.889313	1704.811279	235.185364	-365.403961	1782.152954	56.933598	-278.148499	1741.329712	34.984272	-223.090790	1917.250488	82.348839	-264.046783
252	2.51000000	1538.015259	1329.684692	7.506472	1525.830078	1330.819946	-362.339264	1518.784180	1412.609863	-164.765503	1629.867676	1297.535400	-175.092651	1493.717651	1003.261719	127.727783	1401.404785	1025.747925	-439.484741	1634.164673	796.626312	141.182648	1419.607056	765.192596	-451.091141	1582.270142	873.912964	-52.769367	1613.652466	862.200989	-303.737610	1400.626099	919.486145	-202.632812	1401.748657	1179.827515	-180.705856	1689.723877	1074.994873	-167.274857	1401.868652	531.924133	-0.490874	1381.237427	437.013519	-51.190128	1312.461792	287.342072	9.368335	1231.250854	81.527054	-119.427971	1181.422607	89.244812	-173.619843	1354.396240	42.761784	-147.070648	1613.820312	521.144470	-393.137695	1653.873291	445.009094	-339.441986	1715.940186	233.090302	-362.341553	1790.915405	54.849266	-274.083801	1749.934937	33.532368	-219.227463	1925.888794	79.999733	-258.923309
253	2.52000000	1549.807251	1328.610962	6.466660	1537.066406	1329.580811	-363.282867	1530.360840	1411.398193	-165.766693	1641.617065	1296.446289	-176.214020	1505.055664	1002.424316	127.056679	1411.997925	1024.607422	-439.863861	1644.298279	795.006775	141.261032	1430.157654	764.057678	-451.389099	1594.367554	872.657715	-52.910110	1626.158691	861.203796	-303.846283	1412.911377	918.204224	-203.103439	1413.702026	1178.404785	-181.450867	1701.890747	1073.884155	-168.031769	1412.070190	531.579590	0.503693	1390.775024	436.732391	-49.879974	1319.447998	288.333191	10.919211	1232.995117	84.452637	-117.757637	1183.083008	93.902176	-171.384888	1354.874390	42.815060	-146.832291	1627.686890	520.750549	-391.928741	1666.711548	444.052185	-338.284973	1726.680420	231.085693	-359.588043	1797.869629	52.521404	-270.398560	1756.317749	32.264500	-216.067215	1932.754150	76.053879	-253.251556
254	2.53000000	1561.673706	1327.639893	5.355491	1548.500854	1328.356934	-364.318207	1542.082031	1410.318848	-166.912003	1653.495605	1295.447998	-177.385406	1516.277222	1001.676697	126.236382	1422.862549	1023.467285	-440.362946	1654.100342	793.340271	141.287415	1441.058472	762.928162	-451.792313	1606.617554	871.430786	-53.163700	1638.842163	860.493347	-303.997803	1425.337524	916.987244	-203.475845	1425.771118	1177.132324	-182.247299	1714.208130	1072.898071	-168.840210	1422.774170	531.146423	1.509054	1400.941040	436.399384	-48.479740	1326.944336	289.414032	12.564128	1235.073853	87.671448	-115.982162	1185.161499	99.058075	-168.960236	1355.447632	42.841206	-146.604706	1642.394287	521.049438	-390.998718	1679.853027	443.400116	-337.455933	1737.198608	229.297470	-357.238983	1803.495239	50.233410	-267.229248	1761.023193	31.389702	-213.685562	1938.352905	70.906715	-247.350922
